<mxfile host="app.diagrams.net" agent="Mozilla/5.0 (Windows NT 10.0; Win64; x64) AppleWebKit/537.36 (KHTML, like Gecko) Chrome/131.0.0.0 Safari/537.36" version="26.0.1">
  <diagram name="Page-1" id="e3a06f82-3646-2815-327d-82caf3d4e204">
    <mxGraphModel dx="2988.5" dy="1917" grid="1" gridSize="10" guides="1" tooltips="1" connect="1" arrows="1" fold="1" page="1" pageScale="1.5" pageWidth="1169" pageHeight="826" background="none" math="0" shadow="0">
      <root>
        <mxCell id="0" style=";html=1;" />
        <mxCell id="1" style=";html=1;" parent="0" />
        <mxCell id="WD2J03sTBG4vTbbsbsCk-1" value="" style="fontColor=#0066CC;verticalAlign=top;verticalLabelPosition=bottom;labelPosition=center;align=center;html=1;outlineConnect=0;fillColor=#CCCCCC;strokeColor=#6881B3;gradientColor=none;gradientDirection=north;strokeWidth=2;shape=mxgraph.networks.wireless_modem;" vertex="1" parent="1">
          <mxGeometry x="-1670" y="-1090" width="100" height="85" as="geometry" />
        </mxCell>
        <mxCell id="WD2J03sTBG4vTbbsbsCk-2" value="Ziggo" style="text;html=1;align=center;verticalAlign=middle;whiteSpace=wrap;rounded=0;fontStyle=1;fontSize=45;" vertex="1" parent="1">
          <mxGeometry x="-1650" y="-1180" width="60" height="30" as="geometry" />
        </mxCell>
        <mxCell id="WD2J03sTBG4vTbbsbsCk-3" value="Modem" style="text;html=1;align=center;verticalAlign=middle;whiteSpace=wrap;rounded=0;" vertex="1" parent="1">
          <mxGeometry x="-1650" y="-1005" width="60" height="30" as="geometry" />
        </mxCell>
        <mxCell id="WD2J03sTBG4vTbbsbsCk-4" value="" style="endArrow=classic;html=1;rounded=0;fontStyle=1" edge="1" parent="1">
          <mxGeometry width="50" height="50" relative="1" as="geometry">
            <mxPoint x="-1620.1799999999998" y="-960" as="sourcePoint" />
            <mxPoint x="-1620.59" y="-895" as="targetPoint" />
            <Array as="points">
              <mxPoint x="-1620.59" y="-915" />
            </Array>
          </mxGeometry>
        </mxCell>
        <mxCell id="WD2J03sTBG4vTbbsbsCk-6" value="" style="rounded=0;whiteSpace=wrap;html=1;" vertex="1" parent="1">
          <mxGeometry x="-1725" y="-870" width="210" height="320" as="geometry" />
        </mxCell>
        <mxCell id="WD2J03sTBG4vTbbsbsCk-7" value="Ziggo8451459" style="text;html=1;align=center;verticalAlign=middle;whiteSpace=wrap;rounded=0;fontStyle=1" vertex="1" parent="1">
          <mxGeometry x="-1650" y="-850" width="60" height="30" as="geometry" />
        </mxCell>
        <mxCell id="WD2J03sTBG4vTbbsbsCk-8" value="Leeg netwerk" style="text;html=1;align=center;verticalAlign=middle;whiteSpace=wrap;rounded=0;" vertex="1" parent="1">
          <mxGeometry x="-1675" y="-730" width="110" height="30" as="geometry" />
        </mxCell>
      </root>
    </mxGraphModel>
  </diagram>
</mxfile>
